<svg width="164" height="164" viewBox="0 0 164 164" fill="none" xmlns="http://www.w3.org/2000/svg">
<circle cx="81.625" cy="81.625" r="81.625" fill="#D4B6E8"/>
<path d="M109.48 84.9002H89.59V104.79C89.59 106.59 89.05 108 87.97 109.02C86.89 109.98 85.63 110.46 84.19 110.46C82.69 110.46 81.4 109.98 80.32 109.02C79.24 108 78.7 106.59 78.7 104.79V84.9002H58.72C55.96 84.9002 54.58 83.4602 54.58 80.5802C54.58 79.3202 54.94 78.2102 55.66 77.2502C56.44 76.2302 57.46 75.7202 58.72 75.7202H78.7V55.9202C78.7 54.4202 79.3 53.1902 80.5 52.2302C81.52 51.4502 82.78 51.0602 84.28 51.0602C85.78 51.0602 87.04 51.4802 88.06 52.3202C89.08 53.1602 89.59 54.3602 89.59 55.9202V75.7202H109.48C110.8 75.7202 111.82 76.2002 112.54 77.1602C113.26 78.0602 113.62 79.1102 113.62 80.3102C113.62 81.5702 113.26 82.6502 112.54 83.5502C111.82 84.4502 110.8 84.9002 109.48 84.9002Z" fill="white"/>
</svg>
