<svg width="53" height="53" viewBox="0 0 53 53" fill="none" xmlns="http://www.w3.org/2000/svg">
<path d="M48.0811 26.4995C48.081 14.0833 38.2025 4.0641 26.0732 4.06396C13.9439 4.06396 4.06449 14.0832 4.06445 26.4995C4.06445 38.9159 13.9439 48.9351 26.0732 48.9351C38.2025 48.9349 48.0811 38.9158 48.0811 26.4995Z" fill="#CDC9FF" stroke="black" stroke-width="3"/>
<path d="M48.5832 24.4681V26.4998C48.5805 31.2619 47.0384 35.8955 44.1871 39.7096C41.3358 43.5238 37.3279 46.314 32.7613 47.6642C28.1946 49.0144 23.3138 48.8523 18.8468 47.202C14.3798 45.5517 10.5659 42.5016 7.97404 38.5066C5.38213 34.5117 4.15104 29.7859 4.46437 25.0341C4.7777 20.2824 6.61867 15.7592 9.71271 12.1392C12.8067 8.51913 16.9881 5.99625 21.6331 4.94677C26.2781 3.89729 31.1379 4.37744 35.4878 6.31562M48.5832 8.83312L26.4998 30.9385L19.8748 24.3135" stroke="#1E1E1E" stroke-width="4" stroke-linecap="round" stroke-linejoin="round"/>
</svg>
