<svg width="434" height="68" viewBox="0 0 434 68" fill="none" xmlns="http://www.w3.org/2000/svg">
<path d="M26.375 68H0.59375V0.125H26.1875C47.0938 0.125 60.125 12.875 60.125 34.0625C60.125 55.25 47.0938 68 26.375 68ZM18.4062 52.8125H25.7188C36.2188 52.8125 42.125 48.4062 42.125 34.0625C42.125 19.7188 36.2188 15.3125 25.25 15.3125H18.4062V52.8125ZM68.8438 68V0.125H117.312V14.5625H86.6562V26.8438H114.781V41.2812H86.6562V53.5625H117.219V68H68.8438ZM143.469 68H124.156L146.75 0.125H171.031L193.531 68H174.312L170.281 54.6875H147.5L143.469 68ZM151.625 41.1875H166.156L159.125 18.4062H158.562L151.625 41.1875ZM200.281 68V0.125H229.156C244.344 0.125 254.281 8.75 254.281 23.0938C254.281 32.4688 249.969 39.125 242.656 42.5938L256.531 68H237.125L225.125 45.4062H218.094V68H200.281ZM218.094 31.4375H225.031C231.781 31.4375 235.625 29 235.625 23.0938C235.625 17.0938 231.781 14.375 225.031 14.375H218.094V31.4375ZM262.344 68V0.125H291.219C306.406 0.125 316.344 9.6875 316.344 23.9375C316.344 38.4688 306.125 47.5625 290.656 47.5625H280.156V68H262.344ZM280.156 33.6875H287.094C293.844 33.6875 297.688 29.9375 297.688 23.9375C297.688 18.0312 293.844 14.375 287.094 14.375H280.156V33.6875ZM331.719 68H312.406L335 0.125H359.281L381.781 68H362.562L358.531 54.6875H335.75L331.719 68ZM339.875 41.1875H354.406L347.375 18.4062H346.812L339.875 41.1875ZM388.531 68V0.125H406.344V53.5625H434V68H388.531Z" fill="#D4B6E8"/>
</svg>
