<svg width="361" height="311" viewBox="0 0 361 311" fill="none" xmlns="http://www.w3.org/2000/svg">
<g filter="url(#filter0_d_806_88)">
<path d="M167.939 9.77801C175.204 4.04452 185.454 4.04452 192.719 9.77801L315.422 106.613C330.315 118.366 322.004 142.313 303.032 142.313H57.6267C38.6546 142.313 30.3436 118.366 45.2366 106.613L167.939 9.77801Z" fill="#B9B7E8"/>
</g>
<rect x="26.667" y="110.407" width="306.522" height="199.825" rx="20" fill="#B9B7E8"/>
<g filter="url(#filter1_d_806_88)">
<path d="M60 102L300.724 103.679V152.376L180.763 238.435L60 151.117V102Z" fill="white"/>
<path d="M157.852 185.273H159.797V187.289H160.031C160.281 186.883 160.523 186.543 160.758 186.27C160.992 185.988 161.355 185.727 161.848 185.484C162.34 185.234 162.961 185.109 163.711 185.109C164.773 185.109 165.711 185.379 166.523 185.918C167.344 186.449 167.98 187.211 168.434 188.203C168.895 189.195 169.125 190.352 169.125 191.672C169.125 192.992 168.895 194.152 168.434 195.152C167.98 196.145 167.344 196.91 166.523 197.449C165.711 197.988 164.781 198.258 163.734 198.258C162.992 198.258 162.371 198.137 161.871 197.895C161.379 197.645 161.008 197.375 160.758 197.086C160.508 196.789 160.266 196.445 160.031 196.055H159.867V202.781H157.852V185.273ZM159.82 191.625C159.82 192.586 159.961 193.43 160.242 194.156C160.523 194.883 160.938 195.449 161.484 195.855C162.031 196.254 162.688 196.453 163.453 196.453C164.234 196.453 164.898 196.246 165.445 195.832C166 195.41 166.414 194.836 166.688 194.109C166.969 193.375 167.109 192.547 167.109 191.625C167.109 190.727 166.969 189.922 166.688 189.211C166.414 188.5 166.004 187.941 165.457 187.535C164.91 187.121 164.242 186.914 163.453 186.914C162.672 186.914 162.008 187.109 161.461 187.5C160.922 187.891 160.512 188.441 160.23 189.152C159.957 189.855 159.82 190.68 159.82 191.625ZM171.141 194.391C171.141 193.07 171.59 192.141 172.488 191.602C173.395 191.062 174.539 190.742 175.922 190.641C176.453 190.602 177.047 190.566 177.703 190.535C178.367 190.496 178.922 190.469 179.367 190.453V189.422C179.367 188.602 179.121 187.973 178.629 187.535C178.145 187.09 177.43 186.867 176.484 186.867C175.711 186.867 175.078 187.027 174.586 187.348C174.094 187.66 173.773 188.07 173.625 188.578H171.516C171.602 187.898 171.867 187.297 172.312 186.773C172.758 186.25 173.348 185.844 174.082 185.555C174.824 185.258 175.656 185.109 176.578 185.109C177.797 185.109 178.898 185.422 179.883 186.047C180.867 186.664 181.359 187.852 181.359 189.609V198H179.367V196.266H179.273C179.117 196.594 178.875 196.914 178.547 197.227C178.227 197.531 177.805 197.789 177.281 198C176.766 198.203 176.164 198.305 175.477 198.305C174.664 198.305 173.93 198.148 173.273 197.836C172.617 197.523 172.098 197.074 171.715 196.488C171.332 195.895 171.141 195.195 171.141 194.391ZM173.156 194.484C173.156 195.133 173.398 195.633 173.883 195.984C174.375 196.328 175.023 196.5 175.828 196.5C176.555 196.5 177.184 196.355 177.715 196.066C178.254 195.777 178.664 195.395 178.945 194.918C179.227 194.441 179.367 193.93 179.367 193.383V192.105L176.156 192.328C175.203 192.391 174.465 192.598 173.941 192.949C173.418 193.301 173.156 193.812 173.156 194.484ZM184.594 185.273H186.539V187.219H186.68C186.914 186.57 187.332 186.051 187.934 185.66C188.535 185.262 189.211 185.062 189.961 185.062C190.352 185.062 190.703 185.078 191.016 185.109V187.148C190.93 187.117 190.762 187.086 190.512 187.055C190.27 187.023 190.031 187.008 189.797 187.008C189.195 187.008 188.652 187.137 188.168 187.395C187.684 187.652 187.301 188.008 187.02 188.461C186.746 188.914 186.609 189.422 186.609 189.984V198H184.594V185.273ZM192.984 181.031H195V190.898H195.234L200.742 185.273H203.227L197.859 190.723L203.625 198H201.07L196.348 192L195 193.254V198H192.984V181.031Z" fill="white"/>
<path d="M157.852 185.273H159.797V187.289H160.031C160.281 186.883 160.523 186.543 160.758 186.27C160.992 185.988 161.355 185.727 161.848 185.484C162.34 185.234 162.961 185.109 163.711 185.109C164.773 185.109 165.711 185.379 166.523 185.918C167.344 186.449 167.98 187.211 168.434 188.203C168.895 189.195 169.125 190.352 169.125 191.672C169.125 192.992 168.895 194.152 168.434 195.152C167.98 196.145 167.344 196.91 166.523 197.449C165.711 197.988 164.781 198.258 163.734 198.258C162.992 198.258 162.371 198.137 161.871 197.895C161.379 197.645 161.008 197.375 160.758 197.086C160.508 196.789 160.266 196.445 160.031 196.055H159.867V202.781H157.852V185.273ZM159.82 191.625C159.82 192.586 159.961 193.43 160.242 194.156C160.523 194.883 160.938 195.449 161.484 195.855C162.031 196.254 162.688 196.453 163.453 196.453C164.234 196.453 164.898 196.246 165.445 195.832C166 195.41 166.414 194.836 166.688 194.109C166.969 193.375 167.109 192.547 167.109 191.625C167.109 190.727 166.969 189.922 166.688 189.211C166.414 188.5 166.004 187.941 165.457 187.535C164.91 187.121 164.242 186.914 163.453 186.914C162.672 186.914 162.008 187.109 161.461 187.5C160.922 187.891 160.512 188.441 160.23 189.152C159.957 189.855 159.82 190.68 159.82 191.625ZM171.141 194.391C171.141 193.07 171.59 192.141 172.488 191.602C173.395 191.062 174.539 190.742 175.922 190.641C176.453 190.602 177.047 190.566 177.703 190.535C178.367 190.496 178.922 190.469 179.367 190.453V189.422C179.367 188.602 179.121 187.973 178.629 187.535C178.145 187.09 177.43 186.867 176.484 186.867C175.711 186.867 175.078 187.027 174.586 187.348C174.094 187.66 173.773 188.07 173.625 188.578H171.516C171.602 187.898 171.867 187.297 172.312 186.773C172.758 186.25 173.348 185.844 174.082 185.555C174.824 185.258 175.656 185.109 176.578 185.109C177.797 185.109 178.898 185.422 179.883 186.047C180.867 186.664 181.359 187.852 181.359 189.609V198H179.367V196.266H179.273C179.117 196.594 178.875 196.914 178.547 197.227C178.227 197.531 177.805 197.789 177.281 198C176.766 198.203 176.164 198.305 175.477 198.305C174.664 198.305 173.93 198.148 173.273 197.836C172.617 197.523 172.098 197.074 171.715 196.488C171.332 195.895 171.141 195.195 171.141 194.391ZM173.156 194.484C173.156 195.133 173.398 195.633 173.883 195.984C174.375 196.328 175.023 196.5 175.828 196.5C176.555 196.5 177.184 196.355 177.715 196.066C178.254 195.777 178.664 195.395 178.945 194.918C179.227 194.441 179.367 193.93 179.367 193.383V192.105L176.156 192.328C175.203 192.391 174.465 192.598 173.941 192.949C173.418 193.301 173.156 193.812 173.156 194.484ZM184.594 185.273H186.539V187.219H186.68C186.914 186.57 187.332 186.051 187.934 185.66C188.535 185.262 189.211 185.062 189.961 185.062C190.352 185.062 190.703 185.078 191.016 185.109V187.148C190.93 187.117 190.762 187.086 190.512 187.055C190.27 187.023 190.031 187.008 189.797 187.008C189.195 187.008 188.652 187.137 188.168 187.395C187.684 187.652 187.301 188.008 187.02 188.461C186.746 188.914 186.609 189.422 186.609 189.984V198H184.594V185.273ZM192.984 181.031H195V190.898H195.234L200.742 185.273H203.227L197.859 190.723L203.625 198H201.07L196.348 192L195 193.254V198H192.984V181.031Z" fill="white"/>
<path d="M157.852 185.273H159.797V187.289H160.031C160.281 186.883 160.523 186.543 160.758 186.27C160.992 185.988 161.355 185.727 161.848 185.484C162.34 185.234 162.961 185.109 163.711 185.109C164.773 185.109 165.711 185.379 166.523 185.918C167.344 186.449 167.98 187.211 168.434 188.203C168.895 189.195 169.125 190.352 169.125 191.672C169.125 192.992 168.895 194.152 168.434 195.152C167.98 196.145 167.344 196.91 166.523 197.449C165.711 197.988 164.781 198.258 163.734 198.258C162.992 198.258 162.371 198.137 161.871 197.895C161.379 197.645 161.008 197.375 160.758 197.086C160.508 196.789 160.266 196.445 160.031 196.055H159.867V202.781H157.852V185.273ZM159.82 191.625C159.82 192.586 159.961 193.43 160.242 194.156C160.523 194.883 160.938 195.449 161.484 195.855C162.031 196.254 162.688 196.453 163.453 196.453C164.234 196.453 164.898 196.246 165.445 195.832C166 195.41 166.414 194.836 166.688 194.109C166.969 193.375 167.109 192.547 167.109 191.625C167.109 190.727 166.969 189.922 166.688 189.211C166.414 188.5 166.004 187.941 165.457 187.535C164.91 187.121 164.242 186.914 163.453 186.914C162.672 186.914 162.008 187.109 161.461 187.5C160.922 187.891 160.512 188.441 160.23 189.152C159.957 189.855 159.82 190.68 159.82 191.625ZM171.141 194.391C171.141 193.07 171.59 192.141 172.488 191.602C173.395 191.062 174.539 190.742 175.922 190.641C176.453 190.602 177.047 190.566 177.703 190.535C178.367 190.496 178.922 190.469 179.367 190.453V189.422C179.367 188.602 179.121 187.973 178.629 187.535C178.145 187.09 177.43 186.867 176.484 186.867C175.711 186.867 175.078 187.027 174.586 187.348C174.094 187.66 173.773 188.07 173.625 188.578H171.516C171.602 187.898 171.867 187.297 172.312 186.773C172.758 186.25 173.348 185.844 174.082 185.555C174.824 185.258 175.656 185.109 176.578 185.109C177.797 185.109 178.898 185.422 179.883 186.047C180.867 186.664 181.359 187.852 181.359 189.609V198H179.367V196.266H179.273C179.117 196.594 178.875 196.914 178.547 197.227C178.227 197.531 177.805 197.789 177.281 198C176.766 198.203 176.164 198.305 175.477 198.305C174.664 198.305 173.93 198.148 173.273 197.836C172.617 197.523 172.098 197.074 171.715 196.488C171.332 195.895 171.141 195.195 171.141 194.391ZM173.156 194.484C173.156 195.133 173.398 195.633 173.883 195.984C174.375 196.328 175.023 196.5 175.828 196.5C176.555 196.5 177.184 196.355 177.715 196.066C178.254 195.777 178.664 195.395 178.945 194.918C179.227 194.441 179.367 193.93 179.367 193.383V192.105L176.156 192.328C175.203 192.391 174.465 192.598 173.941 192.949C173.418 193.301 173.156 193.812 173.156 194.484ZM184.594 185.273H186.539V187.219H186.68C186.914 186.57 187.332 186.051 187.934 185.66C188.535 185.262 189.211 185.062 189.961 185.062C190.352 185.062 190.703 185.078 191.016 185.109V187.148C190.93 187.117 190.762 187.086 190.512 187.055C190.27 187.023 190.031 187.008 189.797 187.008C189.195 187.008 188.652 187.137 188.168 187.395C187.684 187.652 187.301 188.008 187.02 188.461C186.746 188.914 186.609 189.422 186.609 189.984V198H184.594V185.273ZM192.984 181.031H195V190.898H195.234L200.742 185.273H203.227L197.859 190.723L203.625 198H201.07L196.348 192L195 193.254V198H192.984V181.031Z" fill="white"/>
</g>
<defs>
<filter id="filter0_d_806_88" x="33.5873" y="5.47791" width="293.484" height="145.835" filterUnits="userSpaceOnUse" color-interpolation-filters="sRGB">
<feFlood flood-opacity="0" result="BackgroundImageFix"/>
<feColorMatrix in="SourceAlpha" type="matrix" values="0 0 0 0 0 0 0 0 0 0 0 0 0 0 0 0 0 0 127 0" result="hardAlpha"/>
<feOffset dy="5"/>
<feGaussianBlur stdDeviation="2"/>
<feComposite in2="hardAlpha" operator="out"/>
<feColorMatrix type="matrix" values="0 0 0 0 0 0 0 0 0 0 0 0 0 0 0 0 0 0 0.25 0"/>
<feBlend mode="normal" in2="BackgroundImageFix" result="effect1_dropShadow_806_88"/>
<feBlend mode="normal" in="SourceGraphic" in2="effect1_dropShadow_806_88" result="shape"/>
</filter>
<filter id="filter1_d_806_88" x="57" y="99" width="246.724" height="142.435" filterUnits="userSpaceOnUse" color-interpolation-filters="sRGB">
<feFlood flood-opacity="0" result="BackgroundImageFix"/>
<feColorMatrix in="SourceAlpha" type="matrix" values="0 0 0 0 0 0 0 0 0 0 0 0 0 0 0 0 0 0 127 0" result="hardAlpha"/>
<feOffset/>
<feGaussianBlur stdDeviation="1.5"/>
<feComposite in2="hardAlpha" operator="out"/>
<feColorMatrix type="matrix" values="0 0 0 0 0 0 0 0 0 0 0 0 0 0 0 0 0 0 0.44 0"/>
<feBlend mode="normal" in2="BackgroundImageFix" result="effect1_dropShadow_806_88"/>
<feBlend mode="normal" in="SourceGraphic" in2="effect1_dropShadow_806_88" result="shape"/>
</filter>
</defs>
</svg>
